<svg width="41" height="40" viewBox="0 0 41 40" fill="none" xmlns="http://www.w3.org/2000/svg">
<g id="vuesax/bold/code">
<g id="vuesax/bold/code_2">
<g id="code">
<path id="Vector" d="M35.255 16.6666H5.25505C4.33838 16.6666 3.58838 17.4166 3.58838 18.3333V26.9833C3.58838 27.3166 3.60505 27.65 3.63838 27.9833C3.97171 33.1166 7.13838 36.2833 12.2717 36.6166C12.605 36.65 12.9384 36.6666 13.2717 36.6666H27.2384C27.5717 36.6666 27.905 36.65 28.2384 36.6166C33.3717 36.2833 36.5384 33.1166 36.8717 27.9833C36.905 27.65 36.9217 27.3166 36.9217 26.9833V18.3333C36.9217 17.4166 36.1717 16.6666 35.255 16.6666ZM13.5884 26.9166C14.155 27.75 14.9217 28.4333 15.805 28.8833C16.4384 29.1833 16.6884 29.9333 16.3717 30.5666C16.155 31 15.705 31.25 15.255 31.25C15.0717 31.25 14.8717 31.2 14.705 31.1166C13.405 30.4833 12.305 29.5 11.5217 28.3166C10.855 27.3166 10.855 26.0166 11.5217 25.0166C12.305 23.8333 13.405 22.85 14.705 22.2166C15.3217 21.9 16.0717 22.15 16.3717 22.7666C16.6884 23.4 16.4384 24.15 15.805 24.45C14.9217 24.9 14.155 25.5833 13.5884 26.4166C13.4884 26.5666 13.4884 26.7666 13.5884 26.9166ZM29.3384 28.3166C28.5384 29.5 27.4384 30.4833 26.155 31.1166C25.9717 31.2 25.7884 31.25 25.605 31.25C25.1384 31.25 24.705 31 24.4884 30.5666C24.1717 29.9333 24.4217 29.1833 25.0384 28.8833C25.9384 28.4333 26.705 27.75 27.255 26.9166C27.3717 26.7666 27.3717 26.5666 27.255 26.4166C26.705 25.5833 25.9384 24.9 25.0384 24.45C24.4217 24.15 24.1717 23.4 24.4884 22.7666C24.7884 22.15 25.5384 21.9 26.155 22.2166C27.4384 22.85 28.5384 23.8333 29.3384 25.0166C30.005 26.0166 30.005 27.3166 29.3384 28.3166Z" fill="white"/>
<path id="Vector_2" d="M36.9217 13.0167V13.3334C36.9217 14.25 36.1717 15 35.255 15L5.25505 15.0167C4.33838 15.0167 3.58838 14.2667 3.58838 13.35V13.0167C3.58838 12.6834 3.60505 12.35 3.63838 12.0167C3.97171 6.88337 7.13838 3.71671 12.2717 3.38337C12.605 3.35004 12.9384 3.33337 13.2717 3.33337H27.2384C27.5717 3.33337 27.905 3.35004 28.2384 3.38337C33.3717 3.71671 36.5384 6.88337 36.8717 12.0167C36.905 12.35 36.9217 12.6834 36.9217 13.0167Z" fill="white"/>
</g>
</g>
</g>
</svg>
