<svg width="40" height="40" viewBox="0 0 40 40" fill="none" xmlns="http://www.w3.org/2000/svg">
<g id="vuesax/bold/key">
<g id="vuesax/bold/key_2">
<path id="Vector" d="M32.9834 7.03333C28.0501 2.11666 20.0501 2.11666 15.1501 7.03333C11.7001 10.45 10.6667 15.3667 12.0001 19.7L4.16675 27.5333C3.61675 28.1 3.23341 29.2167 3.35008 30.0167L3.85008 33.65C4.03341 34.85 5.15008 35.9833 6.35008 36.15L9.98341 36.65C10.7834 36.7667 11.9001 36.4 12.4667 35.8167L13.8334 34.45C14.1667 34.1333 14.1667 33.6 13.8334 33.2667L10.6001 30.0333C10.1167 29.55 10.1167 28.75 10.6001 28.2667C11.0834 27.7833 11.8834 27.7833 12.3667 28.2667L15.6167 31.5167C15.9334 31.8333 16.4667 31.8333 16.7834 31.5167L20.3167 28C24.6334 29.35 29.5501 28.3 32.9834 24.8833C37.9001 19.9667 37.9001 11.95 32.9834 7.03333ZM24.1667 20C21.8667 20 20.0001 18.1333 20.0001 15.8333C20.0001 13.5333 21.8667 11.6667 24.1667 11.6667C26.4667 11.6667 28.3334 13.5333 28.3334 15.8333C28.3334 18.1333 26.4667 20 24.1667 20Z" fill="white"/>
</g>
</g>
</svg>
