<svg width="40" height="40" viewBox="0 0 40 40" fill="none" xmlns="http://www.w3.org/2000/svg">
<g id="vuesax/bold/lamp-charge">
<g id="vuesax/bold/lamp-charge_2">
<g id="lamp-charge">
<path id="Vector" d="M25.4329 36.6667C25.3329 36.6667 25.2163 36.65 25.1163 36.6167C21.7663 35.6667 18.2496 35.6667 14.8996 36.6167C14.2829 36.7834 13.6329 36.4334 13.4663 35.8167C13.2829 35.2 13.6496 34.55 14.2663 34.3834C18.0329 33.3167 21.9996 33.3167 25.7663 34.3834C26.3829 34.5667 26.7496 35.2 26.5663 35.8167C26.3996 36.3334 25.9329 36.6667 25.4329 36.6667Z" fill="white"/>
<path id="Vector_2" d="M32.0162 10.6C30.2829 7.10002 26.9329 4.51668 23.0495 3.66668C18.9829 2.76668 14.8162 3.73335 11.6329 6.30002C8.43288 8.85002 6.61621 12.6667 6.61621 16.75C6.61621 21.0667 9.19954 25.5834 13.0995 28.2V29.5834C13.0829 30.05 13.0662 30.7667 13.6329 31.35C14.2162 31.95 15.0829 32.0167 15.7662 32.0167H24.3162C25.2162 32.0167 25.8995 31.7667 26.3662 31.3C26.9995 30.65 26.9829 29.8167 26.9662 29.3667V28.2C32.1329 24.7167 35.3829 17.3667 32.0162 10.6ZM22.8662 19.3667L21.0829 22.4667C20.8495 22.8667 20.4329 23.1 19.9995 23.1C19.7829 23.1 19.5662 23.05 19.3829 22.9334C18.7829 22.5834 18.5829 21.8167 18.9162 21.2334L20.3329 18.7667H18.9329C18.0995 18.7667 17.4162 18.4 17.0495 17.7834C16.6829 17.15 16.7162 16.3834 17.1329 15.65L18.9162 12.55C19.2662 11.95 20.0329 11.75 20.6162 12.0834C21.2162 12.4334 21.4162 13.2 21.0829 13.7834L19.6662 16.25H21.0662C21.8995 16.25 22.5829 16.6167 22.9495 17.2334C23.3162 17.8667 23.2829 18.65 22.8662 19.3667Z" fill="white"/>
</g>
</g>
</g>
</svg>
