<svg width="40" height="40" viewBox="0 0 40 40" fill="none" xmlns="http://www.w3.org/2000/svg">
<g id="vuesax/bold/security-safe">
<g id="vuesax/bold/security-safe_2">
<g id="security-safe">
<path id="Vector" d="M34.8499 18.5333V11.2167C34.8499 9.84999 33.8166 8.29999 32.5332 7.78332L23.2499 3.98333C21.1666 3.13333 18.8166 3.13333 16.7332 3.98333L7.4499 7.78332C6.18324 8.29999 5.1499 9.84999 5.1499 11.2167V18.5333C5.1499 26.6833 11.0666 34.3167 19.1499 36.55C19.6999 36.7 20.2999 36.7 20.8499 36.55C28.9332 34.3167 34.8499 26.6833 34.8499 18.5333ZM21.2499 21.45V25.8333C21.2499 26.5167 20.6832 27.0833 19.9999 27.0833C19.3166 27.0833 18.7499 26.5167 18.7499 25.8333V21.45C17.0666 20.9167 15.8332 19.35 15.8332 17.5C15.8332 15.2 17.6999 13.3333 19.9999 13.3333C22.2999 13.3333 24.1666 15.2 24.1666 17.5C24.1666 19.3667 22.9332 20.9167 21.2499 21.45Z" fill="white"/>
</g>
</g>
</g>
</svg>
