<svg width="41" height="40" viewBox="0 0 41 40" fill="none" xmlns="http://www.w3.org/2000/svg">
<g id="vuesax/bold/card">
<g id="vuesax/bold/card_2">
<g id="card">
<path id="Vector" d="M37.1663 12.5833C37.1663 13.6833 36.2663 14.5833 35.1663 14.5833H5.83301C4.73301 14.5833 3.83301 13.6833 3.83301 12.5833V12.5666C3.83301 8.74996 6.91634 5.66663 10.733 5.66663H30.2497C34.0663 5.66663 37.1663 8.76663 37.1663 12.5833Z" fill="white"/>
<path id="Vector_2" d="M3.83301 19.0834V27.4334C3.83301 31.25 6.91634 34.3334 10.733 34.3334H30.2497C34.0663 34.3334 37.1663 31.2334 37.1663 27.4167V19.0834C37.1663 17.9834 36.2663 17.0834 35.1663 17.0834H5.83301C4.73301 17.0834 3.83301 17.9834 3.83301 19.0834ZM13.833 28.75H10.4997C9.81634 28.75 9.24967 28.1834 9.24967 27.5C9.24967 26.8167 9.81634 26.25 10.4997 26.25H13.833C14.5163 26.25 15.083 26.8167 15.083 27.5C15.083 28.1834 14.5163 28.75 13.833 28.75ZM24.6663 28.75H17.9997C17.3163 28.75 16.7497 28.1834 16.7497 27.5C16.7497 26.8167 17.3163 26.25 17.9997 26.25H24.6663C25.3497 26.25 25.9163 26.8167 25.9163 27.5C25.9163 28.1834 25.3497 28.75 24.6663 28.75Z" fill="white"/>
</g>
</g>
</g>
</svg>
