<svg width="40" height="40" viewBox="0 0 40 40" fill="none" xmlns="http://www.w3.org/2000/svg">
<g id="vuesax/bold/shield-security">
<g id="vuesax/bold/shield-security_2">
<path id="Vector" d="M30.8998 6.94998L21.7332 3.51665C20.7832 3.16665 19.2332 3.16665 18.2832 3.51665L9.1165 6.94998C7.34984 7.61665 5.9165 9.68332 5.9165 11.5667V25.0667C5.9165 26.4167 6.79984 28.2 7.88317 29L17.0498 35.85C18.6665 37.0667 21.3165 37.0667 22.9332 35.85L32.0998 29C33.1832 28.1833 34.0665 26.4167 34.0665 25.0667V11.5667C34.0832 9.68332 32.6498 7.61665 30.8998 6.94998ZM21.2498 21.45V25.8333C21.2498 26.5167 20.6832 27.0833 19.9998 27.0833C19.3165 27.0833 18.7498 26.5167 18.7498 25.8333V21.45C17.0665 20.9167 15.8332 19.35 15.8332 17.5C15.8332 15.2 17.6998 13.3333 19.9998 13.3333C22.2998 13.3333 24.1665 15.2 24.1665 17.5C24.1665 19.3667 22.9332 20.9167 21.2498 21.45Z" fill="white"/>
</g>
</g>
</svg>
