<svg width="40" height="40" viewBox="0 0 40 40" fill="none" xmlns="http://www.w3.org/2000/svg">
<g id="vuesax/bold/status-up">
<g id="vuesax/bold/status-up_2">
<g id="status-up">
<path id="Vector" d="M26.983 3.33337H13.0163C6.94967 3.33337 3.33301 6.95004 3.33301 13.0167V26.9667C3.33301 33.05 6.94967 36.6667 13.0163 36.6667H26.9663C33.033 36.6667 36.6497 33.05 36.6497 26.9834V13.0167C36.6663 6.95004 33.0497 3.33337 26.983 3.33337ZM12.7163 30.25C12.7163 30.9334 12.1497 31.5 11.4663 31.5C10.783 31.5 10.2163 30.9334 10.2163 30.25V26.8C10.2163 26.1167 10.783 25.55 11.4663 25.55C12.1497 25.55 12.7163 26.1167 12.7163 26.8V30.25ZM21.2497 30.25C21.2497 30.9334 20.683 31.5 19.9997 31.5C19.3163 31.5 18.7497 30.9334 18.7497 30.25V23.3334C18.7497 22.65 19.3163 22.0834 19.9997 22.0834C20.683 22.0834 21.2497 22.65 21.2497 23.3334V30.25ZM29.783 30.25C29.783 30.9334 29.2163 31.5 28.533 31.5C27.8497 31.5 27.283 30.9334 27.283 30.25V19.8834C27.283 19.2 27.8497 18.6334 28.533 18.6334C29.2163 18.6334 29.783 19.2 29.783 19.8834V30.25ZM29.7913 14.6167C29.7867 14.6167 29.783 14.6205 29.783 14.6251C29.7784 15.3047 29.2136 15.8667 28.533 15.8667C27.8497 15.8667 27.283 15.3 27.283 14.6167C27.283 14.0272 26.5589 13.7289 26.1278 14.1309C22.0853 17.9008 17.1889 20.5815 11.7663 21.9334C11.6663 21.9667 11.5663 21.9667 11.4663 21.9667C10.8997 21.9667 10.3997 21.5834 10.2497 21.0167C10.083 20.35 10.483 19.6667 11.1663 19.5C16.1028 18.2696 20.5629 15.8419 24.2637 12.4431C24.842 11.9121 24.4515 10.9834 23.6663 10.9834C22.983 10.9834 22.4163 10.4167 22.4163 9.73337C22.4163 9.05004 22.983 8.48337 23.6663 8.48337H28.5497C28.674 8.48337 28.7964 8.51841 28.9176 8.54649C28.9394 8.55154 28.9612 8.55798 28.983 8.56671C29.0663 8.60004 29.133 8.65004 29.2163 8.70004C29.2637 8.73161 29.311 8.74823 29.3584 8.77821C29.3637 8.78158 29.3707 8.78778 29.3744 8.7929C29.3891 8.81353 29.4099 8.82666 29.4272 8.8452C29.4806 8.90237 29.5235 8.95954 29.5663 9.01671C29.6537 9.13314 29.7044 9.26961 29.7322 9.41247C29.7324 9.41388 29.7327 9.41529 29.733 9.41671C29.7497 9.50004 29.783 9.58337 29.783 9.68337C29.783 9.70004 29.7997 9.71671 29.7997 9.73337V14.6084C29.7997 14.613 29.7959 14.6167 29.7913 14.6167Z" fill="white"/>
</g>
</g>
</g>
</svg>
